<?xml version="1.0" standalone="no"?><!-- Generator: Gravit.io --><svg xmlns="http://www.w3.org/2000/svg" xmlns:xlink="http://www.w3.org/1999/xlink" style="isolation:isolate" viewBox="0 0 240 200" width="240" height="200"><defs><clipPath id="_clipPath_xBhv2mQKzg0zvetvwFNt2aTyfI96TUgc"><rect width="240" height="200"/></clipPath></defs><g clip-path="url(#_clipPath_xBhv2mQKzg0zvetvwFNt2aTyfI96TUgc)"><g><path d=" M 191 82 C 191 42.828 159.172 11 120 11 C 80.828 11 49 42.828 49 82 C 49 121.172 80.828 153 120 153 C 159.172 153 191 121.172 191 82 Z " fill="rgb(72,160,220)"/><g><path d=" M 117.552 25.69 L 122.448 25.69 L 122.448 11 L 117.552 11 L 117.552 25.69 Z " fill="rgb(255,255,255)"/><path d=" M 117.552 153 L 122.448 153 L 122.448 138.31 L 117.552 138.31 L 117.552 153 Z " fill="rgb(255,255,255)"/><path d=" M 176.31 84.448 L 191 84.448 L 191 79.552 L 176.31 79.552 L 176.31 84.448 Z " fill="rgb(255,255,255)"/><path d=" M 49 84.448 L 63.69 84.448 L 63.69 79.552 L 49 79.552 L 49 84.448 Z " fill="rgb(255,255,255)"/></g><path d=" M 131.997 93.997 L 107.759 69.759 L 143.259 49.683 C 145.707 48.214 148.89 48.703 151.093 50.662 L 151.093 50.662 C 153.052 52.621 153.541 55.803 152.072 58.497 L 131.997 93.997 Z " fill="rgb(234,127,95)"/><path d=" M 108.003 70.003 L 132.241 94.241 L 96.497 114.317 C 94.048 115.786 90.866 115.297 88.907 113.338 L 88.907 113.338 C 86.948 111.379 86.458 108.197 87.927 105.503 L 108.003 70.003 Z " fill="rgb(255,255,255)"/></g><g transform="matrix(1,0,0,1,7,160)"><text transform="matrix(1,0,0,1,0,27.832)" style="font-family:&quot;Roboto&quot;;font-weight:700;font-size:30px;font-style:normal;fill:#ea7f5f;stroke:none;">BET</text><text transform="matrix(1,0,0,1,54.58,27.832)" style="font-family:&quot;Roboto&quot;;font-weight:700;font-size:30px;font-style:normal;fill:#48a0dc;stroke:none;">NAVIGATOR</text></g></g></svg>